<svg aria-hidden="true" version="1.1" xmlns="http://www.w3.org/2000/svg" xmlns:xlink="http://www.w3.org/1999/xlink">
<path d="M14 6h4c0-1.105-0.895-2-2-2s-2 0.895-2 2v0zM12 6c0-2.209 1.791-4 4-4s4 1.791 4 4v0h8c0.552 0 1 0.448 1 1s-0.448 1-1 1v0h-1.128l-2.411 17.676c-0.345 2.455-2.431 4.324-4.953 4.324h-7.016c-2.523-0-4.609-1.869-4.95-4.298l-0.003-0.026-2.411-17.676h-1.128c-0.552 0-1-0.448-1-1s0.448-1 1-1v0h8zM14 13c0-0.552-0.448-1-1-1s-1 0.448-1 1v0 10c0 0.552 0.448 1 1 1s1-0.448 1-1v0-10zM19 12c-0.552 0-1 0.448-1 1v0 10c0 0.552 0.448 1 1 1s1-0.448 1-1v0-10c0-0.552-0.448-1-1-1v0z"></path>

</svg>